<svg width="143" height="36" viewBox="0 0 143 36" fill="none" xmlns="http://www.w3.org/2000/svg">
<path d="M0.561681 2.57562C0.263895 2.53323 0 2.7662 0 3.06699V24.352C0 24.6127 0.201908 24.8294 0.461557 24.8535C7.56175 25.512 12.3063 28.1523 17.5014 32.5005V10.1872C12.8676 6.31109 7.12689 3.51012 0.561681 2.57562Z" fill="#82B9FF"/>
<path d="M28.3661 28.0093C28.241 27.7457 28.3671 27.431 28.642 27.333C30.5151 26.6652 32.5281 26.1931 34.7811 25.9319C35.226 25.8803 35.404 25.3152 35.0604 25.0281L21.6374 13.8123L19.3181 11.8729C18.9926 11.6007 18.4973 11.8321 18.4973 12.2564V32.43C18.4973 32.8543 18.9936 33.087 19.3239 32.8206C21.0652 31.4157 22.7736 30.2076 24.5544 29.2046C24.8039 29.0641 25.1187 29.1676 25.2413 29.4264L25.6772 30.3466L27.0345 33.2117C27.1172 33.3863 27.2931 33.4976 27.4864 33.4976H30.1772C30.5443 33.4976 30.7863 33.1152 30.6291 32.7835L28.8195 28.9646L28.3661 28.0093Z" fill="#1576EF"/>
<path d="M2.98267 10.5005C5.60743 11.0005 11.4694 12.7005 13.9192 15.5005" stroke="white" stroke-linecap="round"/>
<path d="M2.98267 14.5005C5.60743 15.0005 11.4694 16.7005 13.9192 19.5005" stroke="white" stroke-linecap="round"/>
<path d="M2.98267 18.5005C5.60743 19.0005 11.4694 20.7005 13.9192 23.5005" stroke="white" stroke-linecap="round"/>
<path d="M42.8 8.74504V1.74504H48.08V2.59504H43.79V4.59504H45.97C46.8033 4.59504 47.4367 4.76837 47.87 5.11504C48.3033 5.46171 48.52 5.96504 48.52 6.62504C48.52 7.30504 48.2833 7.82837 47.81 8.19504C47.3433 8.56171 46.6733 8.74504 45.8 8.74504H42.8ZM43.79 7.95504H45.76C46.34 7.95504 46.7767 7.84504 47.07 7.62504C47.37 7.40504 47.52 7.07837 47.52 6.64504C47.52 5.80504 46.9333 5.38504 45.76 5.38504H43.79V7.95504Z" fill="#101010"/>
<path d="M53.8645 8.82504C53.3311 8.82504 52.8345 8.73504 52.3745 8.55504C51.9211 8.37504 51.5278 8.12504 51.1945 7.80504C50.8611 7.47837 50.6011 7.09837 50.4145 6.66504C50.2278 6.23171 50.1345 5.75837 50.1345 5.24504C50.1345 4.73171 50.2278 4.25837 50.4145 3.82504C50.6011 3.39171 50.8611 3.01504 51.1945 2.69504C51.5278 2.36837 51.9211 2.11504 52.3745 1.93504C52.8278 1.75504 53.3245 1.66504 53.8645 1.66504C54.3978 1.66504 54.8878 1.75504 55.3345 1.93504C55.7878 2.10837 56.1811 2.35837 56.5145 2.68504C56.8545 3.00504 57.1145 3.38171 57.2945 3.81504C57.4811 4.24837 57.5745 4.72504 57.5745 5.24504C57.5745 5.76504 57.4811 6.24171 57.2945 6.67504C57.1145 7.10837 56.8545 7.48837 56.5145 7.81504C56.1811 8.13504 55.7878 8.38504 55.3345 8.56504C54.8878 8.73837 54.3978 8.82504 53.8645 8.82504ZM53.8645 7.93504C54.2511 7.93504 54.6078 7.86837 54.9345 7.73504C55.2678 7.60171 55.5545 7.41504 55.7945 7.17504C56.0411 6.92837 56.2311 6.64171 56.3645 6.31504C56.5045 5.98837 56.5745 5.63171 56.5745 5.24504C56.5745 4.85837 56.5045 4.50171 56.3645 4.17504C56.2311 3.84837 56.0411 3.56504 55.7945 3.32504C55.5545 3.07837 55.2678 2.88837 54.9345 2.75504C54.6078 2.62171 54.2511 2.55504 53.8645 2.55504C53.4711 2.55504 53.1078 2.62171 52.7745 2.75504C52.4478 2.88837 52.1611 3.07837 51.9145 3.32504C51.6678 3.56504 51.4745 3.84837 51.3345 4.17504C51.2011 4.50171 51.1345 4.85837 51.1345 5.24504C51.1345 5.63171 51.2011 5.98837 51.3345 6.31504C51.4745 6.64171 51.6678 6.92837 51.9145 7.17504C52.1611 7.41504 52.4478 7.60171 52.7745 7.73504C53.1078 7.86837 53.4711 7.93504 53.8645 7.93504Z" fill="#101010"/>
<path d="M59.2657 8.82504C59.1657 8.82504 59.0657 8.81837 58.9657 8.80504C58.8657 8.79171 58.7557 8.77171 58.6357 8.74504L58.7057 7.85504C58.8124 7.88171 58.919 7.89504 59.0257 7.89504C59.319 7.89504 59.5524 7.77837 59.7257 7.54504C59.899 7.31171 60.0257 6.95837 60.1057 6.48504C60.1924 6.01171 60.249 5.41504 60.2757 4.69504L60.3857 1.74504H65.3157V8.74504H64.3357V2.35504L64.5757 2.61504H61.0257L61.2457 2.34504L61.1657 4.66504C61.1457 5.35837 61.099 5.96504 61.0257 6.48504C60.9524 7.00504 60.8424 7.43837 60.6957 7.78504C60.549 8.13171 60.359 8.39171 60.1257 8.56504C59.899 8.73837 59.6124 8.82504 59.2657 8.82504Z" fill="#101010"/>
<path d="M71.1661 4.18504C71.9928 4.18504 72.6294 4.37171 73.0761 4.74504C73.5228 5.11171 73.7461 5.66171 73.7461 6.39504C73.7461 7.16837 73.5028 7.75504 73.0161 8.15504C72.5361 8.54837 71.8594 8.74504 70.9861 8.74504H68.0961V1.74504H69.0861V4.18504H71.1661ZM70.9461 7.95504C71.5261 7.95504 71.9694 7.82504 72.2761 7.56504C72.5894 7.30504 72.7461 6.92171 72.7461 6.41504C72.7461 5.92171 72.5928 5.55837 72.2861 5.32504C71.9794 5.09171 71.5328 4.97504 70.9461 4.97504H69.0861V7.95504H70.9461Z" fill="#101010"/>
<path d="M79.955 7.87504L79.725 8.13504V1.74504H80.705V8.13504L80.455 7.87504H83.865L83.615 8.13504V1.74504H84.595V8.74504H75.825V1.74504H76.815V8.13504L76.565 7.87504H79.955Z" fill="#101010"/>
<path d="M86.4023 8.74504L89.5723 1.74504H90.5623L93.7423 8.74504H92.6923L89.8623 2.30504H90.2623L87.4323 8.74504H86.4023ZM87.7523 6.99504L88.0223 6.19504H91.9623L92.2523 6.99504H87.7523Z" fill="#101010"/>
<path d="M99.3684 8.74504V6.46504L99.6284 6.70504H97.4384C96.8717 6.70504 96.3817 6.60837 95.9684 6.41504C95.5617 6.22171 95.2484 5.94504 95.0284 5.58504C94.815 5.21837 94.7084 4.77837 94.7084 4.26504C94.7084 3.73171 94.825 3.27837 95.0584 2.90504C95.2917 2.52504 95.6217 2.23837 96.0484 2.04504C96.475 1.84504 96.9717 1.74504 97.5384 1.74504H100.348V8.74504H99.3684ZM94.7084 8.74504L96.4384 6.26504H97.4584L95.7684 8.74504H94.7084ZM99.3684 6.14504V2.32504L99.6284 2.61504H97.5784C96.9784 2.61504 96.5184 2.75504 96.1984 3.03504C95.8784 3.30837 95.7184 3.71504 95.7184 4.25504C95.7184 4.76837 95.8684 5.16504 96.1684 5.44504C96.475 5.72504 96.925 5.86504 97.5184 5.86504H99.6284L99.3684 6.14504Z" fill="#101010"/>
<path d="M42.8 20.745V13.745H45.53C46.1433 13.745 46.6667 13.8417 47.1 14.035C47.5333 14.2284 47.8667 14.5084 48.1 14.875C48.3333 15.2417 48.45 15.6784 48.45 16.185C48.45 16.6917 48.3333 17.1284 48.1 17.495C47.8667 17.855 47.5333 18.135 47.1 18.335C46.6667 18.5284 46.1433 18.625 45.53 18.625H43.35L43.8 18.155V20.745H42.8ZM43.8 18.255L43.35 17.755H45.5C46.14 17.755 46.6233 17.6184 46.95 17.345C47.2833 17.0717 47.45 16.685 47.45 16.185C47.45 15.685 47.2833 15.2984 46.95 15.025C46.6233 14.7517 46.14 14.615 45.5 14.615H43.35L43.8 14.115V18.255Z" fill="#101010"/>
<path d="M53.6887 20.825C53.1553 20.825 52.6587 20.735 52.1987 20.555C51.7453 20.375 51.352 20.125 51.0187 19.805C50.6853 19.4784 50.4253 19.0984 50.2387 18.665C50.052 18.2317 49.9587 17.7584 49.9587 17.245C49.9587 16.7317 50.052 16.2584 50.2387 15.825C50.4253 15.3917 50.6853 15.015 51.0187 14.695C51.352 14.3684 51.7453 14.115 52.1987 13.935C52.652 13.755 53.1487 13.665 53.6887 13.665C54.222 13.665 54.712 13.755 55.1587 13.935C55.612 14.1084 56.0053 14.3584 56.3387 14.685C56.6787 15.005 56.9387 15.3817 57.1187 15.815C57.3053 16.2484 57.3987 16.725 57.3987 17.245C57.3987 17.765 57.3053 18.2417 57.1187 18.675C56.9387 19.1084 56.6787 19.4884 56.3387 19.815C56.0053 20.135 55.612 20.385 55.1587 20.565C54.712 20.7384 54.222 20.825 53.6887 20.825ZM53.6887 19.935C54.0753 19.935 54.432 19.8684 54.7587 19.735C55.092 19.6017 55.3787 19.415 55.6187 19.175C55.8653 18.9284 56.0553 18.6417 56.1887 18.315C56.3287 17.9884 56.3987 17.6317 56.3987 17.245C56.3987 16.8584 56.3287 16.5017 56.1887 16.175C56.0553 15.8484 55.8653 15.565 55.6187 15.325C55.3787 15.0784 55.092 14.8884 54.7587 14.755C54.432 14.6217 54.0753 14.555 53.6887 14.555C53.2953 14.555 52.932 14.6217 52.5987 14.755C52.272 14.8884 51.9853 15.0784 51.7387 15.325C51.492 15.565 51.2987 15.8484 51.1587 16.175C51.0253 16.5017 50.9587 16.8584 50.9587 17.245C50.9587 17.6317 51.0253 17.9884 51.1587 18.315C51.2987 18.6417 51.492 18.9284 51.7387 19.175C51.9853 19.415 52.272 19.6017 52.5987 19.735C52.932 19.8684 53.2953 19.935 53.6887 19.935Z" fill="#101010"/>
<path d="M62.7452 20.825C62.2119 20.825 61.7186 20.7384 61.2652 20.565C60.8186 20.385 60.4286 20.135 60.0952 19.815C59.7686 19.4884 59.5119 19.1084 59.3252 18.675C59.1386 18.2417 59.0452 17.765 59.0452 17.245C59.0452 16.725 59.1386 16.2484 59.3252 15.815C59.5119 15.3817 59.7719 15.005 60.1052 14.685C60.4386 14.3584 60.8286 14.1084 61.2752 13.935C61.7286 13.755 62.2219 13.665 62.7552 13.665C63.2952 13.665 63.7919 13.7584 64.2452 13.945C64.7052 14.125 65.0952 14.395 65.4152 14.755L64.7652 15.385C64.4986 15.105 64.1986 14.8984 63.8652 14.765C63.5319 14.625 63.1752 14.555 62.7952 14.555C62.4019 14.555 62.0352 14.6217 61.6952 14.755C61.3619 14.8884 61.0719 15.075 60.8252 15.315C60.5786 15.555 60.3852 15.8417 60.2452 16.175C60.1119 16.5017 60.0452 16.8584 60.0452 17.245C60.0452 17.6317 60.1119 17.9917 60.2452 18.325C60.3852 18.6517 60.5786 18.935 60.8252 19.175C61.0719 19.415 61.3619 19.6017 61.6952 19.735C62.0352 19.8684 62.4019 19.935 62.7952 19.935C63.1752 19.935 63.5319 19.8684 63.8652 19.735C64.1986 19.595 64.4986 19.3817 64.7652 19.095L65.4152 19.725C65.0952 20.085 64.7052 20.3584 64.2452 20.545C63.7919 20.7317 63.2919 20.825 62.7452 20.825Z" fill="#101010"/>
<path d="M70.3765 20.825C69.8431 20.825 69.3498 20.7384 68.8965 20.565C68.4498 20.385 68.0598 20.135 67.7265 19.815C67.3998 19.4884 67.1431 19.1084 66.9565 18.675C66.7698 18.2417 66.6765 17.765 66.6765 17.245C66.6765 16.725 66.7698 16.2484 66.9565 15.815C67.1431 15.3817 67.4031 15.005 67.7365 14.685C68.0698 14.3584 68.4598 14.1084 68.9065 13.935C69.3598 13.755 69.8531 13.665 70.3865 13.665C70.9265 13.665 71.4232 13.7584 71.8765 13.945C72.3365 14.125 72.7265 14.395 73.0465 14.755L72.3965 15.385C72.1298 15.105 71.8298 14.8984 71.4965 14.765C71.1631 14.625 70.8065 14.555 70.4265 14.555C70.0331 14.555 69.6665 14.6217 69.3265 14.755C68.9931 14.8884 68.7031 15.075 68.4565 15.315C68.2098 15.555 68.0165 15.8417 67.8765 16.175C67.7431 16.5017 67.6765 16.8584 67.6765 17.245C67.6765 17.6317 67.7431 17.9917 67.8765 18.325C68.0165 18.6517 68.2098 18.935 68.4565 19.175C68.7031 19.415 68.9931 19.6017 69.3265 19.735C69.6665 19.8684 70.0331 19.935 70.4265 19.935C70.8065 19.935 71.1631 19.8684 71.4965 19.735C71.8298 19.595 72.1298 19.3817 72.3965 19.095L73.0465 19.725C72.7265 20.085 72.3365 20.3584 71.8765 20.545C71.4232 20.7317 70.9231 20.825 70.3765 20.825Z" fill="#101010"/>
<path d="M75.0242 20.745V13.745H76.0142V19.145L80.1542 13.745H81.0742V20.745H80.0942V15.355L75.9442 20.745H75.0242Z" fill="#101010"/>
<path d="M83.8566 20.745V13.745H84.8466V19.145L88.9866 13.745H89.9066V20.745H88.9266V15.355L84.7766 20.745H83.8566ZM86.8666 13.255C86.32 13.255 85.8966 13.135 85.5966 12.895C85.3033 12.655 85.1533 12.3184 85.1466 11.885H85.8566C85.8633 12.145 85.9566 12.3484 86.1366 12.495C86.3166 12.635 86.56 12.705 86.8666 12.705C87.1666 12.705 87.4066 12.635 87.5866 12.495C87.7733 12.3484 87.87 12.145 87.8766 11.885H88.5766C88.57 12.3184 88.4166 12.655 88.1166 12.895C87.8233 13.135 87.4066 13.255 86.8666 13.255Z" fill="#101010"/>
<path d="M95.8191 20.825C95.2857 20.825 94.7924 20.7384 94.3391 20.565C93.8924 20.385 93.5024 20.135 93.1691 19.815C92.8424 19.4884 92.5857 19.1084 92.3991 18.675C92.2124 18.2417 92.1191 17.765 92.1191 17.245C92.1191 16.725 92.2124 16.2484 92.3991 15.815C92.5857 15.3817 92.8457 15.005 93.1791 14.685C93.5124 14.3584 93.9024 14.1084 94.3491 13.935C94.8024 13.755 95.2957 13.665 95.8291 13.665C96.3691 13.665 96.8657 13.7584 97.3191 13.945C97.7791 14.125 98.1691 14.395 98.4891 14.755L97.8391 15.385C97.5724 15.105 97.2724 14.8984 96.9391 14.765C96.6057 14.625 96.2491 14.555 95.8691 14.555C95.4757 14.555 95.1091 14.6217 94.7691 14.755C94.4357 14.8884 94.1457 15.075 93.8991 15.315C93.6524 15.555 93.4591 15.8417 93.3191 16.175C93.1857 16.5017 93.1191 16.8584 93.1191 17.245C93.1191 17.6317 93.1857 17.9917 93.3191 18.325C93.4591 18.6517 93.6524 18.935 93.8991 19.175C94.1457 19.415 94.4357 19.6017 94.7691 19.735C95.1091 19.8684 95.4757 19.935 95.8691 19.935C96.2491 19.935 96.6057 19.8684 96.9391 19.735C97.2724 19.595 97.5724 19.3817 97.8391 19.095L98.4891 19.725C98.1691 20.085 97.7791 20.3584 97.3191 20.545C96.8657 20.7317 96.3657 20.825 95.8191 20.825Z" fill="#101010"/>
<path d="M105.177 20.745L102.637 17.295L103.447 16.795L106.317 20.745H105.177ZM100.467 20.745V13.745H101.447V20.745H100.467ZM101.147 17.665V16.785H103.417V17.665H101.147ZM103.537 17.355L102.617 17.215L105.127 13.745H106.197L103.537 17.355Z" fill="#101010"/>
<path d="M106.874 20.745L110.044 13.745H111.034L114.214 20.745H113.164L110.334 14.305H110.734L107.904 20.745H106.874ZM108.224 18.995L108.494 18.195H112.434L112.724 18.995H108.224Z" fill="#101010"/>
<path d="M119.84 20.745V18.465L120.1 18.705H117.91C117.344 18.705 116.854 18.6084 116.44 18.415C116.034 18.2217 115.72 17.945 115.5 17.585C115.287 17.2184 115.18 16.7784 115.18 16.265C115.18 15.7317 115.297 15.2784 115.53 14.905C115.764 14.525 116.094 14.2384 116.52 14.045C116.947 13.845 117.444 13.745 118.01 13.745H120.82V20.745H119.84ZM115.18 20.745L116.91 18.265H117.93L116.24 20.745H115.18ZM119.84 18.145V14.325L120.1 14.615H118.05C117.45 14.615 116.99 14.755 116.67 15.035C116.35 15.3084 116.19 15.715 116.19 16.255C116.19 16.7684 116.34 17.165 116.64 17.445C116.947 17.725 117.397 17.865 117.99 17.865H120.1L119.84 18.145Z" fill="#101010"/>
<path d="M43.83 29.595V28.775H47.58V29.595H43.83ZM44.73 25.665C45.2367 25.665 45.7033 25.755 46.13 25.935C46.5567 26.1084 46.9267 26.3584 47.24 26.685C47.56 27.005 47.8067 27.3817 47.98 27.815C48.16 28.2484 48.25 28.725 48.25 29.245C48.25 29.765 48.16 30.2417 47.98 30.675C47.8067 31.1084 47.56 31.4884 47.24 31.815C46.9267 32.135 46.5567 32.385 46.13 32.565C45.7033 32.7384 45.2367 32.825 44.73 32.825C44.17 32.825 43.6533 32.7317 43.18 32.545C42.7133 32.3584 42.32 32.085 42 31.725L42.63 31.095C42.91 31.3817 43.22 31.5917 43.56 31.725C43.9067 31.8584 44.28 31.925 44.68 31.925C45.0467 31.925 45.3867 31.8584 45.7 31.725C46.0133 31.5917 46.2833 31.4084 46.51 31.175C46.7433 30.935 46.9233 30.6517 47.05 30.325C47.1767 29.9917 47.24 29.6317 47.24 29.245C47.24 28.8584 47.1767 28.5017 47.05 28.175C46.9233 27.8417 46.7433 27.5584 46.51 27.325C46.2833 27.085 46.0133 26.8984 45.7 26.765C45.3867 26.6317 45.0467 26.565 44.68 26.565C44.28 26.565 43.9067 26.6317 43.56 26.765C43.22 26.8984 42.91 27.1084 42.63 27.395L42 26.765C42.32 26.405 42.7133 26.1317 43.18 25.945C43.6533 25.7584 44.17 25.665 44.73 25.665Z" fill="#101010"/>
<path d="M55.4903 25.745H56.4903V32.745H55.4903V25.745ZM51.4703 32.745H50.4703V25.745H51.4703V32.745ZM55.5803 29.625H51.3703V28.755H55.5803V29.625Z" fill="#101010"/>
<path d="M59.2734 32.745V25.745H60.2634V31.875H64.1634V25.745H65.1534V32.745H59.2734ZM65.3034 34.335V32.485L65.5434 32.745H64.1634V31.875H66.2334V34.335H65.3034Z" fill="#101010"/>
<path d="M68.1645 32.745V25.745H69.1545V31.145L73.2945 25.745H74.2145V32.745H73.2345V27.355L69.0845 32.745H68.1645Z" fill="#101010"/>
<path d="M81.7069 32.745L79.1669 29.295L79.9769 28.795L82.8469 32.745H81.7069ZM76.9969 32.745V25.745H77.9769V32.745H76.9969ZM77.6769 29.665V28.785H79.9469V29.665H77.6769ZM80.0669 29.355L79.1469 29.215L81.6569 25.745H82.7269L80.0669 29.355Z" fill="#101010"/>
<path d="M85.2884 32.825C85.1884 32.825 85.0884 32.8184 84.9884 32.805C84.8884 32.7917 84.7784 32.7717 84.6584 32.745L84.7284 31.855C84.835 31.8817 84.9417 31.895 85.0484 31.895C85.3417 31.895 85.575 31.7784 85.7484 31.545C85.9217 31.3117 86.0484 30.9584 86.1284 30.485C86.215 30.0117 86.2717 29.415 86.2984 28.695L86.4084 25.745H91.3384V32.745H90.3584V26.355L90.5984 26.615H87.0484L87.2684 26.345L87.1884 28.665C87.1684 29.3584 87.1217 29.965 87.0484 30.485C86.975 31.005 86.865 31.4384 86.7184 31.785C86.5717 32.1317 86.3817 32.3917 86.1484 32.565C85.9217 32.7384 85.635 32.825 85.2884 32.825Z" fill="#101010"/>
<path d="M97.2687 32.825C96.7354 32.825 96.2387 32.735 95.7787 32.555C95.3254 32.375 94.9321 32.125 94.5987 31.805C94.2654 31.4784 94.0054 31.0984 93.8187 30.665C93.6321 30.2317 93.5387 29.7584 93.5387 29.245C93.5387 28.7317 93.6321 28.2584 93.8187 27.825C94.0054 27.3917 94.2654 27.015 94.5987 26.695C94.9321 26.3684 95.3254 26.115 95.7787 25.935C96.2321 25.755 96.7287 25.665 97.2687 25.665C97.8021 25.665 98.2921 25.755 98.7387 25.935C99.1921 26.1084 99.5854 26.3584 99.9187 26.685C100.259 27.005 100.519 27.3817 100.699 27.815C100.885 28.2484 100.979 28.725 100.979 29.245C100.979 29.765 100.885 30.2417 100.699 30.675C100.519 31.1084 100.259 31.4884 99.9187 31.815C99.5854 32.135 99.1921 32.385 98.7387 32.565C98.2921 32.7384 97.8021 32.825 97.2687 32.825ZM97.2687 31.935C97.6554 31.935 98.0121 31.8684 98.3387 31.735C98.6721 31.6017 98.9587 31.415 99.1987 31.175C99.4454 30.9284 99.6354 30.6417 99.7687 30.315C99.9087 29.9884 99.9787 29.6317 99.9787 29.245C99.9787 28.8584 99.9087 28.5017 99.7687 28.175C99.6354 27.8484 99.4454 27.565 99.1987 27.325C98.9587 27.0784 98.6721 26.8884 98.3387 26.755C98.0121 26.6217 97.6554 26.555 97.2687 26.555C96.8754 26.555 96.5121 26.6217 96.1787 26.755C95.8521 26.8884 95.5654 27.0784 95.3187 27.325C95.0721 27.565 94.8787 27.8484 94.7387 28.175C94.6054 28.5017 94.5387 28.8584 94.5387 29.245C94.5387 29.6317 94.6054 29.9884 94.7387 30.315C94.8787 30.6417 95.0721 30.9284 95.3187 31.175C95.5654 31.415 95.8521 31.6017 96.1787 31.735C96.5121 31.8684 96.8754 31.935 97.2687 31.935Z" fill="#101010"/>
<path d="M103.195 32.745V25.745H109.225V32.745H108.245V26.355L108.485 26.615H103.935L104.185 26.355V32.745H103.195Z" fill="#101010"/>
<path d="M112.918 28.765H116.518V29.615H112.918V28.765ZM113.008 31.875H117.088V32.745H112.008V25.745H116.948V26.615H113.008V31.875Z" fill="#101010"/>
<path d="M123.909 32.275V26.615H120.839L120.789 28.085C120.769 28.5784 120.735 29.0517 120.689 29.505C120.649 29.9584 120.589 30.3684 120.509 30.735C120.429 31.095 120.315 31.3917 120.169 31.625C120.029 31.8584 119.849 32.0017 119.629 32.055L118.549 31.875C118.809 31.895 119.022 31.8084 119.189 31.615C119.362 31.415 119.495 31.1384 119.589 30.785C119.689 30.425 119.762 30.0084 119.809 29.535C119.855 29.055 119.889 28.5417 119.909 27.995L119.979 25.745H124.899V32.275H123.909ZM118.299 34.275L118.309 31.875H125.929V34.275H124.999V32.745H119.239L119.229 34.275H118.299Z" fill="#101010"/>
<path d="M127.896 32.745V25.745H128.886V31.145L133.026 25.745H133.946V32.745H132.966V27.355L128.816 32.745H127.896Z" fill="#101010"/>
<path d="M140.878 32.745V30.465L141.138 30.705H138.948C138.381 30.705 137.891 30.6084 137.478 30.415C137.071 30.2217 136.758 29.945 136.538 29.585C136.325 29.2184 136.218 28.7784 136.218 28.265C136.218 27.7317 136.335 27.2784 136.568 26.905C136.801 26.525 137.131 26.2384 137.558 26.045C137.985 25.845 138.481 25.745 139.048 25.745H141.858V32.745H140.878ZM136.218 32.745L137.948 30.265H138.968L137.278 32.745H136.218ZM140.878 30.145V26.325L141.138 26.615H139.088C138.488 26.615 138.028 26.755 137.708 27.035C137.388 27.3084 137.228 27.715 137.228 28.255C137.228 28.7684 137.378 29.165 137.678 29.445C137.985 29.725 138.435 29.865 139.028 29.865H141.138L140.878 30.145Z" fill="#101010"/>
<path d="M64.1634 31.875H60.2634V25.745H59.2734V32.745H65.1534V25.745H64.1634V31.875ZM64.1634 31.875V32.745H65.5434L65.3034 32.485V34.335H66.2334V31.875H64.1634ZM42.8 8.74504V1.74504H48.08V2.59504H43.79V4.59504H45.97C46.8033 4.59504 47.4367 4.76837 47.87 5.11504C48.3033 5.46171 48.52 5.96504 48.52 6.62504C48.52 7.30504 48.2833 7.82837 47.81 8.19504C47.3433 8.56171 46.6733 8.74504 45.8 8.74504H42.8ZM43.79 7.95504H45.76C46.34 7.95504 46.7767 7.84504 47.07 7.62504C47.37 7.40504 47.52 7.07837 47.52 6.64504C47.52 5.80504 46.9333 5.38504 45.76 5.38504H43.79V7.95504ZM53.8645 8.82504C53.3311 8.82504 52.8345 8.73504 52.3745 8.55504C51.9211 8.37504 51.5278 8.12504 51.1945 7.80504C50.8611 7.47837 50.6011 7.09837 50.4145 6.66504C50.2278 6.23171 50.1345 5.75837 50.1345 5.24504C50.1345 4.73171 50.2278 4.25837 50.4145 3.82504C50.6011 3.39171 50.8611 3.01504 51.1945 2.69504C51.5278 2.36837 51.9211 2.11504 52.3745 1.93504C52.8278 1.75504 53.3245 1.66504 53.8645 1.66504C54.3978 1.66504 54.8878 1.75504 55.3345 1.93504C55.7878 2.10837 56.1811 2.35837 56.5145 2.68504C56.8545 3.00504 57.1145 3.38171 57.2945 3.81504C57.4811 4.24837 57.5745 4.72504 57.5745 5.24504C57.5745 5.76504 57.4811 6.24171 57.2945 6.67504C57.1145 7.10837 56.8545 7.48837 56.5145 7.81504C56.1811 8.13504 55.7878 8.38504 55.3345 8.56504C54.8878 8.73837 54.3978 8.82504 53.8645 8.82504ZM53.8645 7.93504C54.2511 7.93504 54.6078 7.86837 54.9345 7.73504C55.2678 7.60171 55.5545 7.41504 55.7945 7.17504C56.0411 6.92837 56.2311 6.64171 56.3645 6.31504C56.5045 5.98837 56.5745 5.63171 56.5745 5.24504C56.5745 4.85837 56.5045 4.50171 56.3645 4.17504C56.2311 3.84837 56.0411 3.56504 55.7945 3.32504C55.5545 3.07837 55.2678 2.88837 54.9345 2.75504C54.6078 2.62171 54.2511 2.55504 53.8645 2.55504C53.4711 2.55504 53.1078 2.62171 52.7745 2.75504C52.4478 2.88837 52.1611 3.07837 51.9145 3.32504C51.6678 3.56504 51.4745 3.84837 51.3345 4.17504C51.2011 4.50171 51.1345 4.85837 51.1345 5.24504C51.1345 5.63171 51.2011 5.98837 51.3345 6.31504C51.4745 6.64171 51.6678 6.92837 51.9145 7.17504C52.1611 7.41504 52.4478 7.60171 52.7745 7.73504C53.1078 7.86837 53.4711 7.93504 53.8645 7.93504ZM59.2657 8.82504C59.1657 8.82504 59.0657 8.81837 58.9657 8.80504C58.8657 8.79171 58.7557 8.77171 58.6357 8.74504L58.7057 7.85504C58.8124 7.88171 58.919 7.89504 59.0257 7.89504C59.319 7.89504 59.5524 7.77837 59.7257 7.54504C59.899 7.31171 60.0257 6.95837 60.1057 6.48504C60.1924 6.01171 60.249 5.41504 60.2757 4.69504L60.3857 1.74504H65.3157V8.74504H64.3357V2.35504L64.5757 2.61504H61.0257L61.2457 2.34504L61.1657 4.66504C61.1457 5.35837 61.099 5.96504 61.0257 6.48504C60.9524 7.00504 60.8424 7.43837 60.6957 7.78504C60.549 8.13171 60.359 8.39171 60.1257 8.56504C59.899 8.73837 59.6124 8.82504 59.2657 8.82504ZM71.1661 4.18504C71.9928 4.18504 72.6294 4.37171 73.0761 4.74504C73.5228 5.11171 73.7461 5.66171 73.7461 6.39504C73.7461 7.16837 73.5028 7.75504 73.0161 8.15504C72.5361 8.54837 71.8594 8.74504 70.9861 8.74504H68.0961V1.74504H69.0861V4.18504H71.1661ZM70.9461 7.95504C71.5261 7.95504 71.9694 7.82504 72.2761 7.56504C72.5894 7.30504 72.7461 6.92171 72.7461 6.41504C72.7461 5.92171 72.5928 5.55837 72.2861 5.32504C71.9794 5.09171 71.5328 4.97504 70.9461 4.97504H69.0861V7.95504H70.9461ZM79.955 7.87504L79.725 8.13504V1.74504H80.705V8.13504L80.455 7.87504H83.865L83.615 8.13504V1.74504H84.595V8.74504H75.825V1.74504H76.815V8.13504L76.565 7.87504H79.955ZM86.4023 8.74504L89.5723 1.74504H90.5623L93.7423 8.74504H92.6923L89.8623 2.30504H90.2623L87.4323 8.74504H86.4023ZM87.7523 6.99504L88.0223 6.19504H91.9623L92.2523 6.99504H87.7523ZM99.3684 8.74504V6.46504L99.6284 6.70504H97.4384C96.8717 6.70504 96.3817 6.60837 95.9684 6.41504C95.5617 6.22171 95.2484 5.94504 95.0284 5.58504C94.815 5.21837 94.7084 4.77837 94.7084 4.26504C94.7084 3.73171 94.825 3.27837 95.0584 2.90504C95.2917 2.52504 95.6217 2.23837 96.0484 2.04504C96.475 1.84504 96.9717 1.74504 97.5384 1.74504H100.348V8.74504H99.3684ZM94.7084 8.74504L96.4384 6.26504H97.4584L95.7684 8.74504H94.7084ZM99.3684 6.14504V2.32504L99.6284 2.61504H97.5784C96.9784 2.61504 96.5184 2.75504 96.1984 3.03504C95.8784 3.30837 95.7184 3.71504 95.7184 4.25504C95.7184 4.76837 95.8684 5.16504 96.1684 5.44504C96.475 5.72504 96.925 5.86504 97.5184 5.86504H99.6284L99.3684 6.14504ZM42.8 20.745V13.745H45.53C46.1433 13.745 46.6667 13.8417 47.1 14.035C47.5333 14.2284 47.8667 14.5084 48.1 14.875C48.3333 15.2417 48.45 15.6784 48.45 16.185C48.45 16.6917 48.3333 17.1284 48.1 17.495C47.8667 17.855 47.5333 18.135 47.1 18.335C46.6667 18.5284 46.1433 18.625 45.53 18.625H43.35L43.8 18.155V20.745H42.8ZM43.8 18.255L43.35 17.755H45.5C46.14 17.755 46.6233 17.6184 46.95 17.345C47.2833 17.0717 47.45 16.685 47.45 16.185C47.45 15.685 47.2833 15.2984 46.95 15.025C46.6233 14.7517 46.14 14.615 45.5 14.615H43.35L43.8 14.115V18.255ZM53.6887 20.825C53.1553 20.825 52.6587 20.735 52.1987 20.555C51.7453 20.375 51.352 20.125 51.0187 19.805C50.6853 19.4784 50.4253 19.0984 50.2387 18.665C50.052 18.2317 49.9587 17.7584 49.9587 17.245C49.9587 16.7317 50.052 16.2584 50.2387 15.825C50.4253 15.3917 50.6853 15.015 51.0187 14.695C51.352 14.3684 51.7453 14.115 52.1987 13.935C52.652 13.755 53.1487 13.665 53.6887 13.665C54.222 13.665 54.712 13.755 55.1587 13.935C55.612 14.1084 56.0053 14.3584 56.3387 14.685C56.6787 15.005 56.9387 15.3817 57.1187 15.815C57.3053 16.2484 57.3987 16.725 57.3987 17.245C57.3987 17.765 57.3053 18.2417 57.1187 18.675C56.9387 19.1084 56.6787 19.4884 56.3387 19.815C56.0053 20.135 55.612 20.385 55.1587 20.565C54.712 20.7384 54.222 20.825 53.6887 20.825ZM53.6887 19.935C54.0753 19.935 54.432 19.8684 54.7587 19.735C55.092 19.6017 55.3787 19.415 55.6187 19.175C55.8653 18.9284 56.0553 18.6417 56.1887 18.315C56.3287 17.9884 56.3987 17.6317 56.3987 17.245C56.3987 16.8584 56.3287 16.5017 56.1887 16.175C56.0553 15.8484 55.8653 15.565 55.6187 15.325C55.3787 15.0784 55.092 14.8884 54.7587 14.755C54.432 14.6217 54.0753 14.555 53.6887 14.555C53.2953 14.555 52.932 14.6217 52.5987 14.755C52.272 14.8884 51.9853 15.0784 51.7387 15.325C51.492 15.565 51.2987 15.8484 51.1587 16.175C51.0253 16.5017 50.9587 16.8584 50.9587 17.245C50.9587 17.6317 51.0253 17.9884 51.1587 18.315C51.2987 18.6417 51.492 18.9284 51.7387 19.175C51.9853 19.415 52.272 19.6017 52.5987 19.735C52.932 19.8684 53.2953 19.935 53.6887 19.935ZM62.7452 20.825C62.2119 20.825 61.7186 20.7384 61.2652 20.565C60.8186 20.385 60.4286 20.135 60.0952 19.815C59.7686 19.4884 59.5119 19.1084 59.3252 18.675C59.1386 18.2417 59.0452 17.765 59.0452 17.245C59.0452 16.725 59.1386 16.2484 59.3252 15.815C59.5119 15.3817 59.7719 15.005 60.1052 14.685C60.4386 14.3584 60.8286 14.1084 61.2752 13.935C61.7286 13.755 62.2219 13.665 62.7552 13.665C63.2952 13.665 63.7919 13.7584 64.2452 13.945C64.7052 14.125 65.0952 14.395 65.4152 14.755L64.7652 15.385C64.4986 15.105 64.1986 14.8984 63.8652 14.765C63.5319 14.625 63.1752 14.555 62.7952 14.555C62.4019 14.555 62.0352 14.6217 61.6952 14.755C61.3619 14.8884 61.0719 15.075 60.8252 15.315C60.5786 15.555 60.3852 15.8417 60.2452 16.175C60.1119 16.5017 60.0452 16.8584 60.0452 17.245C60.0452 17.6317 60.1119 17.9917 60.2452 18.325C60.3852 18.6517 60.5786 18.935 60.8252 19.175C61.0719 19.415 61.3619 19.6017 61.6952 19.735C62.0352 19.8684 62.4019 19.935 62.7952 19.935C63.1752 19.935 63.5319 19.8684 63.8652 19.735C64.1986 19.595 64.4986 19.3817 64.7652 19.095L65.4152 19.725C65.0952 20.085 64.7052 20.3584 64.2452 20.545C63.7919 20.7317 63.2919 20.825 62.7452 20.825ZM70.3765 20.825C69.8431 20.825 69.3498 20.7384 68.8965 20.565C68.4498 20.385 68.0598 20.135 67.7265 19.815C67.3998 19.4884 67.1431 19.1084 66.9565 18.675C66.7698 18.2417 66.6765 17.765 66.6765 17.245C66.6765 16.725 66.7698 16.2484 66.9565 15.815C67.1431 15.3817 67.4031 15.005 67.7365 14.685C68.0698 14.3584 68.4598 14.1084 68.9065 13.935C69.3598 13.755 69.8531 13.665 70.3865 13.665C70.9265 13.665 71.4232 13.7584 71.8765 13.945C72.3365 14.125 72.7265 14.395 73.0465 14.755L72.3965 15.385C72.1298 15.105 71.8298 14.8984 71.4965 14.765C71.1631 14.625 70.8065 14.555 70.4265 14.555C70.0331 14.555 69.6665 14.6217 69.3265 14.755C68.9931 14.8884 68.7031 15.075 68.4565 15.315C68.2098 15.555 68.0165 15.8417 67.8765 16.175C67.7431 16.5017 67.6765 16.8584 67.6765 17.245C67.6765 17.6317 67.7431 17.9917 67.8765 18.325C68.0165 18.6517 68.2098 18.935 68.4565 19.175C68.7031 19.415 68.9931 19.6017 69.3265 19.735C69.6665 19.8684 70.0331 19.935 70.4265 19.935C70.8065 19.935 71.1631 19.8684 71.4965 19.735C71.8298 19.595 72.1298 19.3817 72.3965 19.095L73.0465 19.725C72.7265 20.085 72.3365 20.3584 71.8765 20.545C71.4232 20.7317 70.9231 20.825 70.3765 20.825ZM75.0242 20.745V13.745H76.0142V19.145L80.1542 13.745H81.0742V20.745H80.0942V15.355L75.9442 20.745H75.0242ZM83.8566 20.745V13.745H84.8466V19.145L88.9866 13.745H89.9066V20.745H88.9266V15.355L84.7766 20.745H83.8566ZM86.8666 13.255C86.32 13.255 85.8966 13.135 85.5966 12.895C85.3033 12.655 85.1533 12.3184 85.1466 11.885H85.8566C85.8633 12.145 85.9566 12.3484 86.1366 12.495C86.3166 12.635 86.56 12.705 86.8666 12.705C87.1666 12.705 87.4066 12.635 87.5866 12.495C87.7733 12.3484 87.87 12.145 87.8766 11.885H88.5766C88.57 12.3184 88.4166 12.655 88.1166 12.895C87.8233 13.135 87.4066 13.255 86.8666 13.255ZM95.8191 20.825C95.2857 20.825 94.7924 20.7384 94.3391 20.565C93.8924 20.385 93.5024 20.135 93.1691 19.815C92.8424 19.4884 92.5857 19.1084 92.3991 18.675C92.2124 18.2417 92.1191 17.765 92.1191 17.245C92.1191 16.725 92.2124 16.2484 92.3991 15.815C92.5857 15.3817 92.8457 15.005 93.1791 14.685C93.5124 14.3584 93.9024 14.1084 94.3491 13.935C94.8024 13.755 95.2957 13.665 95.8291 13.665C96.3691 13.665 96.8657 13.7584 97.3191 13.945C97.7791 14.125 98.1691 14.395 98.4891 14.755L97.8391 15.385C97.5724 15.105 97.2724 14.8984 96.9391 14.765C96.6057 14.625 96.2491 14.555 95.8691 14.555C95.4757 14.555 95.1091 14.6217 94.7691 14.755C94.4357 14.8884 94.1457 15.075 93.8991 15.315C93.6524 15.555 93.4591 15.8417 93.3191 16.175C93.1857 16.5017 93.1191 16.8584 93.1191 17.245C93.1191 17.6317 93.1857 17.9917 93.3191 18.325C93.4591 18.6517 93.6524 18.935 93.8991 19.175C94.1457 19.415 94.4357 19.6017 94.7691 19.735C95.1091 19.8684 95.4757 19.935 95.8691 19.935C96.2491 19.935 96.6057 19.8684 96.9391 19.735C97.2724 19.595 97.5724 19.3817 97.8391 19.095L98.4891 19.725C98.1691 20.085 97.7791 20.3584 97.3191 20.545C96.8657 20.7317 96.3657 20.825 95.8191 20.825ZM105.177 20.745L102.637 17.295L103.447 16.795L106.317 20.745H105.177ZM100.467 20.745V13.745H101.447V20.745H100.467ZM101.147 17.665V16.785H103.417V17.665H101.147ZM103.537 17.355L102.617 17.215L105.127 13.745H106.197L103.537 17.355ZM106.874 20.745L110.044 13.745H111.034L114.214 20.745H113.164L110.334 14.305H110.734L107.904 20.745H106.874ZM108.224 18.995L108.494 18.195H112.434L112.724 18.995H108.224ZM119.84 20.745V18.465L120.1 18.705H117.91C117.344 18.705 116.854 18.6084 116.44 18.415C116.034 18.2217 115.72 17.945 115.5 17.585C115.287 17.2184 115.18 16.7784 115.18 16.265C115.18 15.7317 115.297 15.2784 115.53 14.905C115.764 14.525 116.094 14.2384 116.52 14.045C116.947 13.845 117.444 13.745 118.01 13.745H120.82V20.745H119.84ZM115.18 20.745L116.91 18.265H117.93L116.24 20.745H115.18ZM119.84 18.145V14.325L120.1 14.615H118.05C117.45 14.615 116.99 14.755 116.67 15.035C116.35 15.3084 116.19 15.715 116.19 16.255C116.19 16.7684 116.34 17.165 116.64 17.445C116.947 17.725 117.397 17.865 117.99 17.865H120.1L119.84 18.145ZM43.83 29.595V28.775H47.58V29.595H43.83ZM44.73 25.665C45.2367 25.665 45.7033 25.755 46.13 25.935C46.5567 26.1084 46.9267 26.3584 47.24 26.685C47.56 27.005 47.8067 27.3817 47.98 27.815C48.16 28.2484 48.25 28.725 48.25 29.245C48.25 29.765 48.16 30.2417 47.98 30.675C47.8067 31.1084 47.56 31.4884 47.24 31.815C46.9267 32.135 46.5567 32.385 46.13 32.565C45.7033 32.7384 45.2367 32.825 44.73 32.825C44.17 32.825 43.6533 32.7317 43.18 32.545C42.7133 32.3584 42.32 32.085 42 31.725L42.63 31.095C42.91 31.3817 43.22 31.5917 43.56 31.725C43.9067 31.8584 44.28 31.925 44.68 31.925C45.0467 31.925 45.3867 31.8584 45.7 31.725C46.0133 31.5917 46.2833 31.4084 46.51 31.175C46.7433 30.935 46.9233 30.6517 47.05 30.325C47.1767 29.9917 47.24 29.6317 47.24 29.245C47.24 28.8584 47.1767 28.5017 47.05 28.175C46.9233 27.8417 46.7433 27.5584 46.51 27.325C46.2833 27.085 46.0133 26.8984 45.7 26.765C45.3867 26.6317 45.0467 26.565 44.68 26.565C44.28 26.565 43.9067 26.6317 43.56 26.765C43.22 26.8984 42.91 27.1084 42.63 27.395L42 26.765C42.32 26.405 42.7133 26.1317 43.18 25.945C43.6533 25.7584 44.17 25.665 44.73 25.665ZM55.4903 25.745H56.4903V32.745H55.4903V25.745ZM51.4703 32.745H50.4703V25.745H51.4703V32.745ZM55.5803 29.625H51.3703V28.755H55.5803V29.625ZM68.1645 32.745V25.745H69.1545V31.145L73.2945 25.745H74.2145V32.745H73.2345V27.355L69.0845 32.745H68.1645ZM81.7069 32.745L79.1669 29.295L79.9769 28.795L82.8469 32.745H81.7069ZM76.9969 32.745V25.745H77.9769V32.745H76.9969ZM77.6769 29.665V28.785H79.9469V29.665H77.6769ZM80.0669 29.355L79.1469 29.215L81.6569 25.745H82.7269L80.0669 29.355ZM85.2884 32.825C85.1884 32.825 85.0884 32.8184 84.9884 32.805C84.8884 32.7917 84.7784 32.7717 84.6584 32.745L84.7284 31.855C84.835 31.8817 84.9417 31.895 85.0484 31.895C85.3417 31.895 85.575 31.7784 85.7484 31.545C85.9217 31.3117 86.0484 30.9584 86.1284 30.485C86.215 30.0117 86.2717 29.415 86.2984 28.695L86.4084 25.745H91.3384V32.745H90.3584V26.355L90.5984 26.615H87.0484L87.2684 26.345L87.1884 28.665C87.1684 29.3584 87.1217 29.965 87.0484 30.485C86.975 31.005 86.865 31.4384 86.7184 31.785C86.5717 32.1317 86.3817 32.3917 86.1484 32.565C85.9217 32.7384 85.635 32.825 85.2884 32.825ZM97.2687 32.825C96.7354 32.825 96.2387 32.735 95.7787 32.555C95.3254 32.375 94.9321 32.125 94.5987 31.805C94.2654 31.4784 94.0054 31.0984 93.8187 30.665C93.6321 30.2317 93.5387 29.7584 93.5387 29.245C93.5387 28.7317 93.6321 28.2584 93.8187 27.825C94.0054 27.3917 94.2654 27.015 94.5987 26.695C94.9321 26.3684 95.3254 26.115 95.7787 25.935C96.2321 25.755 96.7287 25.665 97.2687 25.665C97.8021 25.665 98.2921 25.755 98.7387 25.935C99.1921 26.1084 99.5854 26.3584 99.9187 26.685C100.259 27.005 100.519 27.3817 100.699 27.815C100.885 28.2484 100.979 28.725 100.979 29.245C100.979 29.765 100.885 30.2417 100.699 30.675C100.519 31.1084 100.259 31.4884 99.9187 31.815C99.5854 32.135 99.1921 32.385 98.7387 32.565C98.2921 32.7384 97.8021 32.825 97.2687 32.825ZM97.2687 31.935C97.6554 31.935 98.0121 31.8684 98.3387 31.735C98.6721 31.6017 98.9587 31.415 99.1987 31.175C99.4454 30.9284 99.6354 30.6417 99.7687 30.315C99.9087 29.9884 99.9787 29.6317 99.9787 29.245C99.9787 28.8584 99.9087 28.5017 99.7687 28.175C99.6354 27.8484 99.4454 27.565 99.1987 27.325C98.9587 27.0784 98.6721 26.8884 98.3387 26.755C98.0121 26.6217 97.6554 26.555 97.2687 26.555C96.8754 26.555 96.5121 26.6217 96.1787 26.755C95.8521 26.8884 95.5654 27.0784 95.3187 27.325C95.0721 27.565 94.8787 27.8484 94.7387 28.175C94.6054 28.5017 94.5387 28.8584 94.5387 29.245C94.5387 29.6317 94.6054 29.9884 94.7387 30.315C94.8787 30.6417 95.0721 30.9284 95.3187 31.175C95.5654 31.415 95.8521 31.6017 96.1787 31.735C96.5121 31.8684 96.8754 31.935 97.2687 31.935ZM103.195 32.745V25.745H109.225V32.745H108.245V26.355L108.485 26.615H103.935L104.185 26.355V32.745H103.195ZM112.918 28.765H116.518V29.615H112.918V28.765ZM113.008 31.875H117.088V32.745H112.008V25.745H116.948V26.615H113.008V31.875ZM123.909 32.275V26.615H120.839L120.789 28.085C120.769 28.5784 120.735 29.0517 120.689 29.505C120.649 29.9584 120.589 30.3684 120.509 30.735C120.429 31.095 120.315 31.3917 120.169 31.625C120.029 31.8584 119.849 32.0017 119.629 32.055L118.549 31.875C118.809 31.895 119.022 31.8084 119.189 31.615C119.362 31.415 119.495 31.1384 119.589 30.785C119.689 30.425 119.762 30.0084 119.809 29.535C119.855 29.055 119.889 28.5417 119.909 27.995L119.979 25.745H124.899V32.275H123.909ZM118.299 34.275L118.309 31.875H125.929V34.275H124.999V32.745H119.239L119.229 34.275H118.299ZM127.896 32.745V25.745H128.886V31.145L133.026 25.745H133.946V32.745H132.966V27.355L128.816 32.745H127.896ZM140.878 32.745V30.465L141.138 30.705H138.948C138.381 30.705 137.891 30.6084 137.478 30.415C137.071 30.2217 136.758 29.945 136.538 29.585C136.325 29.2184 136.218 28.7784 136.218 28.265C136.218 27.7317 136.335 27.2784 136.568 26.905C136.801 26.525 137.131 26.2384 137.558 26.045C137.985 25.845 138.481 25.745 139.048 25.745H141.858V32.745H140.878ZM136.218 32.745L137.948 30.265H138.968L137.278 32.745H136.218ZM140.878 30.145V26.325L141.138 26.615H139.088C138.488 26.615 138.028 26.755 137.708 27.035C137.388 27.3084 137.228 27.715 137.228 28.255C137.228 28.7684 137.378 29.165 137.678 29.445C137.985 29.725 138.435 29.865 139.028 29.865H141.138L140.878 30.145Z" stroke="black" stroke-width="0.7"/>
</svg>
